<?xml version="1.0" encoding="UTF-8" standalone="no"?>
<svg
   xmlns:dc="http://purl.org/dc/elements/1.1/"
   xmlns:cc="http://creativecommons.org/ns#"
   xmlns:rdf="http://www.w3.org/1999/02/22-rdf-syntax-ns#"
   xmlns:svg="http://www.w3.org/2000/svg"
   xmlns="http://www.w3.org/2000/svg"
   height="96.903999"
   width="511.99954"
   version="1.1"
   viewBox="0 0 511.99955 96.904004"
   data-name="Layer 1"
   id="Layer_1">
  <metadata
     id="metadata839">
    <rdf:RDF>
      <cc:Work
         rdf:about="">
        <dc:format>image/svg+xml</dc:format>
        <dc:type
           rdf:resource="http://purl.org/dc/dcmitype/StillImage" />
        <dc:title>Sberbank Logo</dc:title>
      </cc:Work>
    </rdf:RDF>
  </metadata>
  <defs
     id="defs804">
    <style
       id="style802">.cls-1{fill:#2f9a41;}</style>
  </defs>
  <title
     id="title806">Sberbank Logo</title>
  <g
     transform="scale(1.1806762)"
     id="g855">
    <path
       class="cls-1"
       d="m 113.07942,50.63 a 19.11,19.11 0 0 0 6.59,4.51 25.8,25.8 0 0 0 9.48,1.62 c 1.85,0 3.58,-0.23 5,-0.35 a 20,20 0 0 0 4.16,-1 c 1.27,-0.35 2.31,-0.93 3.35,-1.27 a 26,26 0 0 1 2.54,-1.27 l -1.29,-2.71 c -0.69,0.35 -1.39,0.69 -2.2,1 a 23.9,23.9 0 0 1 -2.31,0.92 11.65,11.65 0 0 1 -2.89,0.58 18.74,18.74 0 0 1 -3.82,0.23 12.35,12.35 0 0 1 -6.59,-1.62 13,13 0 0 1 -4.16,-4.16 20.84,20.84 0 0 1 -2,-6.24 55.84,55.84 0 0 1 -0.58,-7.86 c 0,-2.2 0.23,-4.51 0.35,-6.82 a 17.11,17.11 0 0 1 1.65,-6.03 12.43,12.43 0 0 1 3.58,-4.51 11.92,11.92 0 0 1 6.48,-1.85 11,11 0 0 1 6.47,2 c 1.85,1.27 2.89,3.35 3.35,6.13 h 2.89 v -8.87 c -0.92,-0.35 -1.85,-0.69 -2.89,-1 a 15.68,15.68 0 0 0 -3.35,-0.69 c -1.27,-0.23 -2.31,-0.23 -3.58,-0.35 -1,0 -2.2,-0.23 -3,-0.23 a 29.12,29.12 0 0 0 -10.06,1.62 17.24,17.24 0 0 0 -10.75,12 32.64,32.64 0 0 0 -1.27,9.83 30.08,30.08 0 0 0 1.27,9.37 16.3,16.3 0 0 0 3.58,7.02 z"
       id="path808"
       style="fill:#2f9a41" />
    <path
       class="cls-1"
       d="m 288.46942,55.26 a 15.39,15.39 0 0 0 5.9,-1.85 9.86,9.86 0 0 0 4.16,-4.51 17.3,17.3 0 0 0 1.62,-8.09 16.4,16.4 0 0 0 -1,-6.24 10.1,10.1 0 0 0 -3.35,-4.28 16.56,16.56 0 0 0 -6.13,-2.31 42.52,42.52 0 0 0 -9.13,-0.69 h -3.82 V 16.64 a 2.77,2.77 0 0 1 0.69,-2.2 6,6 0 0 1 2.89,-0.35 h 5.43 a 22.44,22.44 0 0 1 4.16,0.23 4.7,4.7 0 0 1 2.54,0.93 5.2,5.2 0 0 1 1.62,2.2 24.12,24.12 0 0 1 1.27,3.81 h 2.24 v -9.94 h -33 v 1.39 c 0.23,0 0.35,0.23 0.92,0.23 0.58,0.23 0.93,0.35 1,0.58 a 4.2,4.2 0 0 1 0.58,1 c 0,0.58 0.23,1 0.23,1.85 v 34.22 a 4.53,4.53 0 0 1 -0.23,1.85 c 0,0.58 -0.23,0.92 -0.58,1 a 1.56,1.56 0 0 1 -1,0.58 2,2 0 0 1 -0.92,0.23 v 1.39 h 16.65 a 70,70 0 0 0 7.26,-0.38 z m -10.91,-3.24 a 1.65,1.65 0 0 1 -0.58,-1.27 c 0,-0.58 -0.23,-1.27 -0.23,-2.2 V 29.94 h 3.82 c 3.35,0 5.9,0.92 7.4,2.66 1.5,1.74 2.2,4.62 2.2,8.56 a 22.62,22.62 0 0 1 -0.69,6.24 8.8,8.8 0 0 1 -2,3.58 13.68,13.68 0 0 1 -2.66,1.62 15.46,15.46 0 0 1 -3.24,0.35 c -1,-0.23 -2,-0.23 -2.54,-0.35 a 2.19,2.19 0 0 1 -1.48,-0.58 z"
       id="path810"
       style="fill:#2f9a41" />
    <path
       class="cls-1"
       d="m 241.29942,54.22 c -0.23,0 -0.35,-0.23 -0.92,-0.23 -0.58,-0.23 -0.93,-0.35 -1,-0.58 -0.07,-0.23 -0.35,-0.58 -0.58,-1 0,-0.58 -0.23,-1 -0.23,-1.85 v -12.3 h 4.51 a 40,40 0 0 0 6.59,-0.58 15.75,15.75 0 0 0 5.55,-2 9.87,9.87 0 0 0 3.82,-4.28 16.56,16.56 0 0 0 1.39,-7.4 17.48,17.48 0 0 0 -1.27,-6.82 11.81,11.81 0 0 0 -3.6,-3.89 12,12 0 0 0 -5.2,-1.62 51.62,51.62 0 0 0 -6.13,-0.35 h -17.61 v 1.39 c 0.23,0 0.35,0.23 0.93,0.23 0.58,0.23 0.92,0.35 1,0.58 a 4.17,4.17 0 0 1 0.58,1 c 0,0.58 0.23,1 0.23,1.85 v 34.11 a 4.49,4.49 0 0 1 -0.23,1.85 c 0,0.58 -0.23,0.92 -0.58,1 a 1.56,1.56 0 0 1 -1,0.58 2,2 0 0 1 -0.93,0.23 v 1.27 h 14.57 l 0.11,-1.27 z m -2.43,-37.92 a 1.72,1.72 0 0 1 0.23,-1 1,1 0 0 1 0.35,-0.69 1.42,1.42 0 0 1 1,-0.35 c 0.58,0 1,-0.23 2,-0.23 a 30.64,30.64 0 0 1 3.24,0.35 7.83,7.83 0 0 1 2.66,1.62 12.14,12.14 0 0 1 1.85,3 18,18 0 0 1 0.58,4.62 c 0,3.81 -0.58,6.59 -1.62,8.56 -1.04,1.97 -3,3 -5.78,3 h -4.51 z"
       id="path812"
       style="fill:#2f9a41" />
    <path
       class="cls-1"
       d="m 220.83942,45.43 h -2.89 a 36.06,36.06 0 0 1 -1,4.16 4.16,4.16 0 0 1 -1.39,2.31 3.41,3.41 0 0 1 -2.54,0.92 23.93,23.93 0 0 1 -4.51,0.23 20.05,20.05 0 0 1 -4.16,-0.23 6.87,6.87 0 0 1 -2.31,-0.69 1.79,1.79 0 0 1 -0.92,-1.39 7.92,7.92 0 0 1 -0.23,-2.54 V 34.1 h 7.67 c 0.69,0 1.39,0.23 2.2,0.23 a 17,17 0 0 1 2.2,0.35 8.74,8.74 0 0 1 1.85,0.69 v -5.78 a 4.42,4.42 0 0 1 -1.85,0.69 42.47,42.47 0 0 1 -4.39,0.58 h -7.75 v -14.7 a 6,6 0 0 1 0.35,-2 c 0.35,-0.35 0.93,-0.35 1.85,-0.35 h 4.86 a 22.46,22.46 0 0 1 4.16,0.23 5.1,5.1 0 0 1 2.54,0.92 5.2,5.2 0 0 1 1.62,2.2 24.34,24.34 0 0 1 1.27,3.82 h 2.31 v -9.66 h -30.85 v 1.39 c 0.23,0 0.35,0.23 0.92,0.23 0.58,0.23 0.92,0.35 1,0.58 a 4.17,4.17 0 0 1 0.58,1 c 0,0.58 0.23,1 0.23,1.85 v 34.11 a 4.51,4.51 0 0 1 -0.23,1.85 c 0,0.58 -0.23,0.92 -0.58,1 a 1.56,1.56 0 0 1 -1,0.58 2,2 0 0 1 -0.92,0.23 v 1.27 h 31.91 z"
       id="path814"
       style="fill:#2f9a41" />
    <path
       class="cls-1"
       d="m 172.04942,55.26 a 15.39,15.39 0 0 0 5.9,-1.85 10.75,10.75 0 0 0 4.28,-4.51 17.28,17.28 0 0 0 1.62,-8.09 16.38,16.38 0 0 0 -1,-6.24 10.1,10.1 0 0 0 -3.35,-4.28 16.56,16.56 0 0 0 -6.13,-2.31 42.5,42.5 0 0 0 -9.13,-0.69 h -3.82 V 16.64 a 2.78,2.78 0 0 1 0.69,-2.2 6,6 0 0 1 2.89,-0.35 h 5.43 a 22.45,22.45 0 0 1 4.16,0.23 5.1,5.1 0 0 1 2.54,0.93 5.2,5.2 0 0 1 1.62,2.2 24,24 0 0 1 1.27,3.81 h 2.31 v -9.94 h -33.1 v 1.39 c 0.23,0 0.35,0.23 0.93,0.23 0.58,0.23 0.92,0.35 1,0.58 a 4.2,4.2 0 0 1 0.58,1 c 0,0.58 0.23,1 0.23,1.85 v 34.11 a 4.82,4.82 0 0 1 -0.23,1.85 c 0,0.58 -0.23,0.92 -0.58,1 a 1.56,1.56 0 0 1 -1,0.58 2,2 0 0 1 -0.93,0.23 v 1.62 h 16.65 c 2.68,-0.15 4.85,-0.15 7.17,-0.5 z m -10.87,-3.24 a 1.65,1.65 0 0 1 -0.58,-1.27 c 0,-0.58 -0.23,-1.27 -0.23,-2.2 V 29.94 h 3.82 c 3.35,0 5.9,0.92 7.4,2.66 1.5,1.74 2.2,4.62 2.2,8.56 a 22.7,22.7 0 0 1 -0.69,6.24 8.8,8.8 0 0 1 -2,3.58 13.66,13.66 0 0 1 -2.66,1.62 15.44,15.44 0 0 1 -3.24,0.35 c -1,-0.23 -1.85,-0.23 -2.54,-0.35 a 2,2 0 0 1 -1.48,-0.58 z"
       id="path816"
       style="fill:#2f9a41" />
    <rect
       class="cls-1"
       x="107.99941"
       y="68.199997"
       width="325.35001"
       height="4.2800002"
       id="rect818"
       style="fill:#2f9a41" />
    <path
       class="cls-1"
       d="m 407.32942,38.96 c 0.93,1.27 1.62,2.31 2.54,3.35 0.69,1 1.62,2.2 2.31,3.24 a 28.27,28.27 0 0 0 2.31,3.24 31,31 0 0 1 2.31,3.58 c 0.69,1 1.27,2.31 1.85,3.35 l 15,0.23 c -1.62,-1.62 -3,-3.24 -4.62,-4.86 -1.39,-1.62 -2.66,-3 -3.59,-3.93 -1.39,-1.62 -2.66,-3 -3.81,-4.28 -1.15,-1.28 -2.31,-2.66 -3.35,-3.93 a 44.59,44.59 0 0 1 -3,-3.93 c -0.81,-1.27 -2,-2.89 -2.89,-4.28 l 0.69,-0.92 c 1,-1.39 2.31,-2.89 3.82,-4.62 a 48.41,48.41 0 0 1 4.51,-5.2 62.59,62.59 0 0 1 4.65,-4.84 40.61,40.61 0 0 1 4.16,-3.35 h -10.41 a 27.82,27.82 0 0 1 -1.62,3.24 28.92,28.92 0 0 1 -2.54,4.11 c -0.92,1.39 -2,3 -2.89,4.62 -0.89,1.62 -2,3 -3,4.51 -1,1.51 -2,2.89 -2.89,3.93 -0.92,1.27 -1.62,2.2 -2.2,3 0.81,1.19 1.73,2.47 2.66,3.74 z"
       id="path820"
       style="fill:#2f9a41" />
    <path
       class="cls-1"
       d="m 406.05942,54.22 c -0.23,0 -0.35,-0.23 -0.93,-0.23 -0.58,-0.23 -0.92,-0.35 -1,-0.58 a 4.16,4.16 0 0 1 -0.58,-1 c 0,-0.58 -0.23,-1 -0.23,-1.85 v -34 a 4.49,4.49 0 0 1 0.23,-1.85 c 0,-0.58 0.23,-0.92 0.58,-1 a 4.16,4.16 0 0 1 1,-0.58 2,2 0 0 1 0.93,-0.23 v -1.5 h -14.57 v 1.39 c 0.23,0 0.35,0.23 0.93,0.23 0.58,0.23 0.92,0.35 1,0.58 a 4.14,4.14 0 0 1 0.58,1 c 0,0.58 0.23,1 0.23,1.85 v 34.11 a 4.49,4.49 0 0 1 -0.23,1.85 c 0,0.58 -0.23,0.92 -0.58,1 a 1.55,1.55 0 0 1 -1,0.58 2,2 0 0 1 -0.93,0.23 v 1.27 h 14.57 z"
       id="path822"
       style="fill:#2f9a41" />
    <path
       class="cls-1"
       d="m 309.55942,50.29 c 0.58,-2.54 1.62,-6.13 3,-10.64 h 14.22 l 2,5.78 a 43.25,43.25 0 0 1 2,6.47 15,15 0 0 1 0.92,3.93 h 11.33 c -0.58,-0.92 -1,-2.2 -1.85,-3.58 a 55.77,55.77 0 0 1 -2.54,-6.24 l -10.28,-29.14 a 15.78,15.78 0 0 1 -0.93,-3.24 c -0.23,-0.92 -0.23,-1.62 -0.35,-2.2 h -12.71 v 1.39 c 0.23,0 0.35,0.23 0.92,0.23 0.58,0.23 0.92,0.35 1,0.58 a 4.15,4.15 0 0 1 0.58,1 v 0.92 a 7.14,7.14 0 0 1 -0.58,2.89 l -7.17,17.57 c -1.27,3.24 -2.54,6.13 -3.35,8.21 -0.81,2.08 -1.85,4.16 -2.31,5.55 -0.69,1.39 -1.27,2.66 -1.85,3.58 a 25.23,25.23 0 0 0 -1.27,2.31 h 8.09 a 46,46 0 0 1 1.13,-5.37 z m 10.18,-31.68 5.82,17.92 h -12.23 z"
       id="path824"
       style="fill:#2f9a41" />
    <path
       class="cls-1"
       d="m 359.91942,54.22 h -0.36 c -0.23,0 -0.35,-0.23 -0.93,-0.23 -0.58,-0.23 -0.92,-0.35 -1,-0.58 a 4.19,4.19 0 0 1 -0.58,-1 c 0,-0.58 -0.23,-1 -0.23,-1.85 v -17 h 17.23 v 16.88 a 4.49,4.49 0 0 1 -0.23,1.85 c 0,0.58 -0.23,0.92 -0.58,1 a 1.56,1.56 0 0 1 -1,0.58 2,2 0 0 1 -0.92,0.23 v 1.39 h 14.57 V 54.1 c -0.23,0 -0.35,-0.23 -0.92,-0.23 -0.58,-0.23 -0.93,-0.35 -1,-0.58 a 4.08,4.08 0 0 1 -0.58,-1 c 0,-0.58 -0.23,-1 -0.23,-1.85 V 16.16 a 4.49,4.49 0 0 1 0.23,-1.85 c 0,-0.58 0.23,-0.92 0.58,-1 a 4.18,4.18 0 0 1 1,-0.58 2,2 0 0 1 0.92,-0.23 v -1.18 h -14.33 v 1.39 c 0.23,0 0.35,0.23 0.92,0.23 0.58,0.23 0.93,0.35 1,0.58 a 4.17,4.17 0 0 1 0.58,1 c 0,0.58 0.23,1 0.23,1.85 v 14.26 h -17.02 V 16.3 a 4.53,4.53 0 0 1 0.23,-1.85 c 0,-0.58 0.23,-0.92 0.58,-1 a 4.13,4.13 0 0 1 1,-0.58 1.74,1.74 0 0 1 0.92,-0.23 v -1.32 h -14.53 v 1.39 c 0.23,0 0.35,0.23 0.92,0.23 0.58,0.23 0.92,0.35 1,0.58 a 4.2,4.2 0 0 1 0.58,1 c 0,0.58 0.23,1 0.23,1.85 v 34.22 a 4.8,4.8 0 0 1 -0.23,1.85 c 0,0.58 -0.23,0.92 -0.58,1 a 1.56,1.56 0 0 1 -1,0.58 2,2 0 0 1 -0.92,0.23 v 1.39 h 14.57 l -0.12,-1.5 z"
       id="path826"
       style="fill:#2f9a41" />
    <path
       class="cls-1"
       d="m 78.399416,15.95 c -0.93,-1.27 -1.85,-2.54 -2.66,-3.82 l -49.72,28.56 L 2.0194158,26.93 a 16.69,16.69 0 0 0 -1,4.62 L 26.249416,46.16 Z"
       id="path828"
       style="fill:#2f9a41" />
    <path
       class="cls-1"
       d="M 26.019416,51.44 0.23941575,36.64 a 11.26,11.26 0 0 0 -0.23,2.77 42.665,42.665 0 1 0 85.33000025,0 41.88,41.88 0 0 0 -4.62,-19.42 z"
       id="path830"
       style="fill:#2f9a41" />
    <path
       class="cls-1"
       d="m 72.269416,8.55 a 47.18,47.18 0 0 0 -3.82,-3.24 l -42.43,24.63 L 5.5594158,18.26 c -0.69,1.27 -1.39,2.66 -2.2,4.16 L 25.789416,35.37 Z"
       id="path832"
       style="fill:#2f9a41" />
    <path
       class="cls-1"
       d="m 64.289416,2.54 a 40.44,40.44 0 0 0 -5,-2.54 l -33.27,19.16 -14.91,-8.41 c -1,1 -2.0000002,2.31 -3.0000002,3.58 L 25.909416,24.51 Z"
       id="path834"
       style="fill:#2f9a41" />
  </g>
</svg>
