<?xml version="1.0" encoding="UTF-8" standalone="no"?>
<svg
   xmlns:dc="http://purl.org/dc/elements/1.1/"
   xmlns:cc="http://creativecommons.org/ns#"
   xmlns:rdf="http://www.w3.org/1999/02/22-rdf-syntax-ns#"
   xmlns:svg="http://www.w3.org/2000/svg"
   xmlns="http://www.w3.org/2000/svg"
   version="1.1"
   id="Layer_1"
   x="0px"
   y="0px"
   width="512.00098"
   height="165.703"
   viewBox="0 0 512.001 165.70299"
   enable-background="new 0 0 258.381 161.154"
   xml:space="preserve"><metadata
   id="metadata23"><rdf:RDF><cc:Work
       rdf:about=""><dc:format>image/svg+xml</dc:format><dc:type
         rdf:resource="http://purl.org/dc/dcmitype/StillImage" /><dc:title></dc:title></cc:Work></rdf:RDF></metadata><defs
   id="defs21" />
<g
   id="g484"><polygon
     points="127.582,24.995 116.145,95.719 97.858,95.719 109.296,24.995 "
     id="polygon9"
     style="fill:#00579f"
     transform="matrix(2.26804,0,0,2.26804,-41.555029,-53.782033)" /><path
     d="M 372.21938,6.829068 C 364.03856,3.5835027 351.06311,-4.8e-7 335.01899,-4.8e-7 c -40.95853,0 -69.8012,21.84122548 -69.9781,53.06759948 -0.34021,23.038751 20.6505,35.835032 36.34987,43.516884 16.04639,7.849687 21.50102,12.973187 21.50102,19.970097 -0.1633,10.74597 -12.96638,15.69937 -24.90761,15.69937 -16.55896,0 -25.43154,-2.55382 -38.91503,-8.53237 l -5.46144,-2.56288 -5.80392,36.0074 c 9.72763,4.43175 27.64968,8.36453 46.25668,8.5369 43.51915,0 71.85151,-21.50329 72.18718,-54.77997 0.16556,-18.259988 -10.91835,-32.251527 -34.81442,-43.684717 -14.50638,-7.339377 -23.3903,-12.28824 -23.3903,-19.797721 0.17011,-6.8268 7.51402,-13.819168 23.88927,-13.819168 13.4835,-0.342474 23.3903,2.898556 30.89524,6.141853 l 3.75134,1.703298 z"
     id="path11"
     style="fill:#00579f;stroke-width:2.26803994" /><path
     d="m 427.3441,106.48675 c 3.41566,-9.215051 16.55896,-44.87998 16.55896,-44.87998 -0.17237,0.342474 3.40886,-9.385149 5.4569,-15.356899 l 2.89856,13.821436 c 0,0 7.85422,38.395649 9.55978,46.415443 -6.48205,0 -26.28204,0 -34.4742,0 z M 478.54056,2.9076268 h -32.08142 c -9.89319,0 -17.40948,2.8985551 -21.67793,13.3088592 L 363.17444,163.31022 h 43.51915 c 0,0 7.16474,-19.79772 8.70474,-24.06164 4.77422,0 47.10946,0 53.25131,0 1.19072,5.63155 4.94886,24.06164 4.94886,24.06164 h 38.40246 z"
     id="path13"
     style="fill:#00579f;stroke-width:2.26803994" /><path
     d="M 145.74879,2.9076268 105.13046,112.28839 100.6919,90.104693 C 93.182423,64.507593 69.631096,36.696887 43.349048,22.868647 L 80.553977,163.14238 H 124.41333 L 189.60588,2.9076268 Z"
     id="path15"
     style="fill:#00579f;stroke-width:2.26803994" /><path
     d="M 67.412953,2.9076268 H 0.68267992 L -1.1999999e-7,6.148656 C 52.053786,19.459783 86.527994,51.545745 100.6919,90.111497 L 86.18552,16.391125 C 83.797274,6.1463879 76.457896,3.2455648 67.412953,2.9076268 Z"
     id="path17"
     style="fill:#faa61a;stroke-width:2.26803994" /></g>
</svg>